<svg xmlns="http://www.w3.org/2000/svg" viewBox="0 0 512 512" width="512" height="512">
  <defs>
    <linearGradient id="p1-top" x1="0%" y1="0%" x2="100%" y2="80%">
      <stop offset="0%" stop-color="#D7DB0A"/>
      <stop offset="100%" stop-color="#62D399"/>
    </linearGradient>
    <linearGradient id="p1-bottom" x1="0%" y1="20%" x2="100%" y2="100%">
      <stop offset="0%" stop-color="#74AF52"/>
      <stop offset="100%" stop-color="#0BA398"/>
    </linearGradient>
    <linearGradient id="p1-fold" x1="0%" y1="0%" x2="100%" y2="50%">
      <stop offset="0%" stop-color="#E8ED55"/>
      <stop offset="100%" stop-color="#99CC33"/>
    </linearGradient>
    <linearGradient id="p2-top" x1="0%" y1="0%" x2="100%" y2="80%">
      <stop offset="0%" stop-color="#99CC33"/>
      <stop offset="100%" stop-color="#62D399"/>
    </linearGradient>
    <linearGradient id="p2-bottom" x1="0%" y1="20%" x2="100%" y2="100%">
      <stop offset="0%" stop-color="#4CA352"/>
      <stop offset="100%" stop-color="#36A382"/>
    </linearGradient>
    <linearGradient id="p2-fold" x1="0%" y1="0%" x2="100%" y2="50%">
      <stop offset="0%" stop-color="#B8D94A"/>
      <stop offset="100%" stop-color="#74AF52"/>
    </linearGradient>
    <linearGradient id="p3-top" x1="0%" y1="0%" x2="100%" y2="80%">
      <stop offset="0%" stop-color="#62D399"/>
      <stop offset="100%" stop-color="#0BA398"/>
    </linearGradient>
    <linearGradient id="p3-bottom" x1="0%" y1="20%" x2="100%" y2="100%">
      <stop offset="0%" stop-color="#0BA398"/>
      <stop offset="100%" stop-color="#4CA352"/>
    </linearGradient>
    <linearGradient id="p3-fold" x1="0%" y1="0%" x2="100%" y2="50%">
      <stop offset="0%" stop-color="#74CF8A"/>
      <stop offset="100%" stop-color="#62D399"/>
    </linearGradient>
  </defs>

  <!-- Three planes radiating from center, 120° apart.
       Each plane's back edge starts at x≈75, keeping
       a clear gap in the middle (no overlap). -->
  <g transform="translate(256, 256)">

    <!-- Plane 1 — upper-right -->
    <g transform="rotate(-50)">
      <polygon points="215,0 75,-72 95,0" fill="url(#p1-top)"/>
      <polygon points="215,0 75,58 95,0" fill="url(#p1-bottom)"/>
      <polygon points="215,0 95,-8 95,8" fill="url(#p1-fold)"/>
    </g>

    <!-- Plane 2 — lower-left -->
    <g transform="rotate(70)">
      <polygon points="215,0 75,-72 95,0" fill="url(#p2-top)"/>
      <polygon points="215,0 75,58 95,0" fill="url(#p2-bottom)"/>
      <polygon points="215,0 95,-8 95,8" fill="url(#p2-fold)"/>
    </g>

    <!-- Plane 3 — up-left -->
    <g transform="rotate(190)">
      <polygon points="215,0 75,-72 95,0" fill="url(#p3-top)"/>
      <polygon points="215,0 75,58 95,0" fill="url(#p3-bottom)"/>
      <polygon points="215,0 95,-8 95,8" fill="url(#p3-fold)"/>
    </g>

  </g>
</svg>
