<?xml version="1.0" encoding="UTF-8" standalone="no"?>
<!DOCTYPE svg PUBLIC "-//W3C//DTD SVG 1.1//EN" "http://www.w3.org/Graphics/SVG/1.1/DTD/svg11.dtd">
<svg width="100%" height="100%" viewBox="0 0 512 512" version="1.1" xmlns="http://www.w3.org/2000/svg" xmlns:xlink="http://www.w3.org/1999/xlink" xml:space="preserve" xmlns:serif="http://www.serif.com/" style="fill-rule:evenodd;clip-rule:evenodd;stroke-linejoin:round;stroke-miterlimit:2;">
    <g transform="matrix(1.171183,0,0,1.171183,-95.929481,19.218041)">
        <path d="M458.7,27.1L277.3,103.3L362.3,142L458.7,27.1Z" style="fill:url(#_Linear1);"/>
    </g>
    <g transform="matrix(1.171183,0,0,1.171183,-95.929481,19.218041)">
        <path d="M458.7,27.1L401.8,207.8L362.3,142L458.7,27.1Z" style="fill:url(#_Linear2);"/>
    </g>
    <g transform="matrix(1.171183,0,0,1.171183,-96.773086,-76.109334)">
        <path d="M377.9,485.5L402.6,290.3L326.6,344.6L377.9,485.5Z" style="fill:url(#_Linear3);"/>
    </g>
    <g transform="matrix(1.171183,0,0,1.171183,-96.773086,-76.109334)">
        <path d="M377.9,485.5L249.9,345.9L326.6,344.6L377.9,485.5Z" style="fill:url(#_Linear4);"/>
    </g>
    <g transform="matrix(1.171183,0,0,1.171183,-11.568972,-29.711054)">
        <path d="M21.3,186.3L178,305.4L169.1,212.4L21.3,186.3Z" style="fill:url(#_Linear5);"/>
    </g>
    <g transform="matrix(1.171183,0,0,1.171183,-11.568972,-29.711054)">
        <path d="M21.3,186.3L206.3,145.3L169.1,212.4L21.3,186.3Z" style="fill:url(#_Linear6);"/>
    </g>
    <defs>
        <linearGradient id="_Linear1" x1="0" y1="0" x2="1" y2="0" gradientUnits="userSpaceOnUse" gradientTransform="matrix(83222.8584,26708.231052,-26708.231052,83222.8584,271.5102,-13002.171152)"><stop offset="0" style="stop-color:rgb(215,219,10);stop-opacity:1"/><stop offset="1" style="stop-color:rgb(98,211,153);stop-opacity:1"/></linearGradient>
        <linearGradient id="_Linear2" x1="0" y1="0" x2="1" y2="0" gradientUnits="userSpaceOnUse" gradientTransform="matrix(44226.9366,124268.72763,-124268.72763,44226.9366,358.767,-86694.69743)"><stop offset="0" style="stop-color:rgb(116,175,82);stop-opacity:1"/><stop offset="1" style="stop-color:rgb(11,163,152);stop-opacity:1"/></linearGradient>
        <linearGradient id="_Linear3" x1="0" y1="0" x2="1" y2="0" gradientUnits="userSpaceOnUse" gradientTransform="matrix(30606.4572,161499.421693,-161499.421693,30606.4572,320.5548,-74053.102493)"><stop offset="0" style="stop-color:rgb(153,204,51);stop-opacity:1"/><stop offset="1" style="stop-color:rgb(98,211,153);stop-opacity:1"/></linearGradient>
        <linearGradient id="_Linear4" x1="0" y1="0" x2="1" y2="0" gradientUnits="userSpaceOnUse" gradientTransform="matrix(48364.0199,46907.742984,-46907.742984,48364.0199,259.3841,21849.724816)"><stop offset="0" style="stop-color:rgb(76,163,82);stop-opacity:1"/><stop offset="1" style="stop-color:rgb(54,163,130);stop-opacity:1"/></linearGradient>
        <linearGradient id="_Linear5" x1="0" y1="0" x2="1" y2="0" gradientUnits="userSpaceOnUse" gradientTransform="matrix(27894.914,12881.821038,-12881.821038,27894.914,26.1942,20836.964862)"><stop offset="0" style="stop-color:rgb(98,211,153);stop-opacity:1"/><stop offset="1" style="stop-color:rgb(11,163,152);stop-opacity:1"/></linearGradient>
        <linearGradient id="_Linear6" x1="0" y1="0" x2="1" y2="0" gradientUnits="userSpaceOnUse" gradientTransform="matrix(38151.2653,4014.092398,-4014.092398,38151.2653,28.8747,10381.838502)"><stop offset="0" style="stop-color:rgb(11,163,152);stop-opacity:1"/><stop offset="1" style="stop-color:rgb(76,163,82);stop-opacity:1"/></linearGradient>
    </defs>
</svg>
